<mxfile host="app.diagrams.net" modified="2023-04-05T07:08:13.273Z" agent="Mozilla/5.0 (Windows NT 10.0; Win64; x64) AppleWebKit/537.36 (KHTML, like Gecko) Chrome/111.0.0.0 Safari/537.36" etag="HZNsx-LW1gyExlnmURty" version="21.1.4" type="github" pages="2">
  <diagram name="Page-1" id="GmFtkJCidTMTxOJwpe9g">
    <mxGraphModel dx="1050" dy="541" grid="1" gridSize="10" guides="1" tooltips="1" connect="1" arrows="1" fold="1" page="1" pageScale="1" pageWidth="850" pageHeight="1100" math="0" shadow="0">
      <root>
        <mxCell id="0" />
        <mxCell id="1" parent="0" />
        <mxCell id="xtsd_CawFZIZJIQlBOCX-1" value="" style="fillColor=none;strokeColor=none;pointerEvents=0;fontStyle=0;html=1;whiteSpace=wrap;container=1;collapsible=0;childLayout=stackLayout;resizeParent=1;dropTarget=0;fontSize=13;spacing=0;strokeOpacity=100;rounded=1;absoluteArcSize=1;arcSize=9;strokeWidth=0.8;" vertex="1" parent="1">
          <mxGeometry x="225" y="165" width="240" height="1078.75" as="geometry" />
        </mxCell>
        <mxCell id="xtsd_CawFZIZJIQlBOCX-2" value="User" style="swimlane;html=1;whiteSpace=wrap;connectable=0;fontStyle=0;startSize=30;dropTarget=0;rounded=0;spacing=0;strokeColor=#3a414a;strokeOpacity=100;strokeWidth=0.8;container=1;pointerEvents=0;collapsible=0;recursiveResize=0;fontSize=16.7;fontColor=#3a414a;" vertex="1" parent="xtsd_CawFZIZJIQlBOCX-1">
          <mxGeometry width="240" height="1078.75" as="geometry" />
        </mxCell>
        <mxCell id="xtsd_CawFZIZJIQlBOCX-3" value="" style="fillColor=none;strokeColor=none;pointerEvents=0;fontStyle=0;html=1;whiteSpace=wrap;container=1;collapsible=0;childLayout=stackLayout;resizeParent=1;dropTarget=0;fontSize=13;spacing=0;strokeOpacity=100;rounded=1;absoluteArcSize=1;arcSize=9;strokeWidth=0.8;" vertex="1" parent="1">
          <mxGeometry x="465" y="165" width="240" height="1078.75" as="geometry" />
        </mxCell>
        <mxCell id="xtsd_CawFZIZJIQlBOCX-4" value="Sistem" style="swimlane;html=1;whiteSpace=wrap;connectable=0;fontStyle=0;startSize=30;dropTarget=0;rounded=0;spacing=0;strokeColor=#3a414a;strokeOpacity=100;strokeWidth=0.8;container=1;pointerEvents=0;collapsible=0;recursiveResize=0;fontSize=16.7;fontColor=#3a414a;" vertex="1" parent="xtsd_CawFZIZJIQlBOCX-3">
          <mxGeometry width="240" height="1078.75" as="geometry" />
        </mxCell>
        <mxCell id="xtsd_CawFZIZJIQlBOCX-5" value="" style="html=1;overflow=block;blockSpacing=1;whiteSpace=wrap;ellipse;fillColor=#000000;fontSize=13;spacing=0;strokeColor=#FF0000;strokeOpacity=100;rounded=1;absoluteArcSize=1;arcSize=9;strokeWidth=0.8;lucidId=6C6LS0C.vJaK;" vertex="1" parent="1">
          <mxGeometry x="330" y="240" width="30" height="30" as="geometry" />
        </mxCell>
        <mxCell id="xtsd_CawFZIZJIQlBOCX-6" value="&lt;div style=&quot;display: flex; justify-content: center; text-align: center; align-items: baseline; font-size: 0; line-height: 1.25;margin-top: -2px;&quot;&gt;&lt;span&gt;&lt;span style=&quot;font-size:16.7px;color:#3a414a;&quot;&gt;input username dan password&lt;/span&gt;&lt;/span&gt;&lt;/div&gt;" style="rounded=1;arcSize=20;whiteSpace=wrap;overflow=block;blockSpacing=1;html=1;fontSize=13;spacing=0;strokeColor=#3a414a;strokeOpacity=100;strokeWidth=0.8;" vertex="1" parent="1">
          <mxGeometry x="278" y="360" width="135" height="60" as="geometry" />
        </mxCell>
        <mxCell id="xtsd_CawFZIZJIQlBOCX-7" value="&lt;div style=&quot;display: flex; justify-content: center; text-align: center; align-items: baseline; font-size: 0; line-height: 1.25;margin-top: -2px;&quot;&gt;&lt;span&gt;&lt;span style=&quot;font-size:16.7px;color:#3a414a;&quot;&gt;mengecek Usename dan password&lt;/span&gt;&lt;/span&gt;&lt;/div&gt;" style="rounded=1;arcSize=20;whiteSpace=wrap;overflow=block;blockSpacing=1;html=1;fontSize=13;spacing=0;strokeColor=#3a414a;strokeOpacity=100;strokeWidth=0.8;" vertex="1" parent="1">
          <mxGeometry x="540" y="353" width="135" height="75" as="geometry" />
        </mxCell>
        <mxCell id="xtsd_CawFZIZJIQlBOCX-8" value="" style="html=1;jettySize=18;whiteSpace=wrap;fontSize=13;strokeColor=#3a414a;strokeOpacity=100;strokeWidth=0.8;rounded=1;arcSize=12;edgeStyle=orthogonalEdgeStyle;startArrow=none;endArrow=block;endFill=1;exitX=0.5;exitY=1.013;exitPerimeter=0;entryX=0.5;entryY=-0.006;entryPerimeter=0;lucidId=LH6LDHy.SX9O;" edge="1" parent="1" source="xtsd_CawFZIZJIQlBOCX-5" target="xtsd_CawFZIZJIQlBOCX-6">
          <mxGeometry width="100" height="100" relative="1" as="geometry">
            <Array as="points" />
          </mxGeometry>
        </mxCell>
        <mxCell id="xtsd_CawFZIZJIQlBOCX-9" value="" style="html=1;jettySize=18;whiteSpace=wrap;fontSize=13;strokeColor=#3a414a;strokeOpacity=100;strokeWidth=0.8;rounded=1;arcSize=12;edgeStyle=orthogonalEdgeStyle;startArrow=none;endArrow=block;endFill=1;exitX=1.003;exitY=0.5;exitPerimeter=0;entryX=-0.003;entryY=0.5;entryPerimeter=0;lucidId=OH6LhLTKJwkX;" edge="1" parent="1" source="xtsd_CawFZIZJIQlBOCX-6" target="xtsd_CawFZIZJIQlBOCX-7">
          <mxGeometry width="100" height="100" relative="1" as="geometry">
            <Array as="points" />
          </mxGeometry>
        </mxCell>
        <mxCell id="xtsd_CawFZIZJIQlBOCX-10" value="" style="html=1;overflow=block;blockSpacing=1;whiteSpace=wrap;shape=rhombus;fontSize=13;spacing=0;strokeColor=#3a414a;strokeOpacity=100;rounded=1;absoluteArcSize=1;arcSize=9;strokeWidth=0.8;lucidId=YH6LPpz3KE2Y;" vertex="1" parent="1">
          <mxGeometry x="593" y="510" width="30" height="30" as="geometry" />
        </mxCell>
        <mxCell id="xtsd_CawFZIZJIQlBOCX-11" value="" style="html=1;jettySize=18;whiteSpace=wrap;fontSize=13;strokeColor=#3a414a;strokeOpacity=100;strokeWidth=0.8;rounded=1;arcSize=12;edgeStyle=orthogonalEdgeStyle;startArrow=none;endArrow=block;endFill=1;exitX=0.5;exitY=1.005;exitPerimeter=0;entryX=0.5;entryY=0.05;entryPerimeter=0;lucidId=2H6LCRGqpR-H;" edge="1" parent="1" source="xtsd_CawFZIZJIQlBOCX-7" target="xtsd_CawFZIZJIQlBOCX-10">
          <mxGeometry width="100" height="100" relative="1" as="geometry">
            <Array as="points" />
          </mxGeometry>
        </mxCell>
        <mxCell id="xtsd_CawFZIZJIQlBOCX-12" value="" style="html=1;jettySize=18;whiteSpace=wrap;fontSize=13.3;fontColor=#333333;fontStyle=1;strokeColor=#3a414a;strokeOpacity=100;strokeWidth=0.8;rounded=1;arcSize=12;edgeStyle=orthogonalEdgeStyle;startArrow=none;endArrow=block;endFill=1;exitX=0.5;exitY=0.95;exitPerimeter=0;entryX=0.5;entryY=-0.005;entryPerimeter=0;lucidId=7H6LPeJtjO~q;" edge="1" parent="1" source="xtsd_CawFZIZJIQlBOCX-10" target="xtsd_CawFZIZJIQlBOCX-14">
          <mxGeometry width="100" height="100" relative="1" as="geometry">
            <Array as="points" />
          </mxGeometry>
        </mxCell>
        <mxCell id="xtsd_CawFZIZJIQlBOCX-13" value="Benar" style="text;html=1;resizable=0;labelBackgroundColor=default;align=center;verticalAlign=middle;fontStyle=1;fontColor=#333333;fontSize=13.3;" vertex="1" parent="xtsd_CawFZIZJIQlBOCX-12">
          <mxGeometry relative="1" as="geometry" />
        </mxCell>
        <mxCell id="xtsd_CawFZIZJIQlBOCX-14" value="&lt;div style=&quot;display: flex; justify-content: center; text-align: center; align-items: baseline; font-size: 0; line-height: 1.25;margin-top: -2px;&quot;&gt;&lt;span&gt;&lt;span style=&quot;font-size:16.7px;color:#3a414a;&quot;&gt;Menverifikasi username dan password &lt;/span&gt;&lt;/span&gt;&lt;/div&gt;" style="rounded=1;arcSize=20;whiteSpace=wrap;overflow=block;blockSpacing=1;html=1;fontSize=13;spacing=0;strokeColor=#3a414a;strokeOpacity=100;strokeWidth=0.8;" vertex="1" parent="1">
          <mxGeometry x="536" y="690" width="143" height="75" as="geometry" />
        </mxCell>
        <mxCell id="xtsd_CawFZIZJIQlBOCX-15" value="" style="html=1;overflow=block;blockSpacing=1;whiteSpace=wrap;shape=rhombus;fontSize=13;spacing=0;strokeColor=#3a414a;strokeOpacity=100;rounded=1;absoluteArcSize=1;arcSize=9;strokeWidth=0.8;lucidId=rK6LPUkktGsR;" vertex="1" parent="1">
          <mxGeometry x="593" y="870" width="30" height="30" as="geometry" />
        </mxCell>
        <mxCell id="xtsd_CawFZIZJIQlBOCX-16" value="" style="html=1;jettySize=18;whiteSpace=wrap;fontSize=13.3;fontColor=#333333;fontStyle=1;strokeColor=#3a414a;strokeOpacity=100;strokeWidth=0.8;rounded=1;arcSize=12;edgeStyle=orthogonalEdgeStyle;startArrow=none;endArrow=block;endFill=1;exitX=0.05;exitY=0.5;exitPerimeter=0;entryX=0.75;entryY=1;entryPerimeter=0;lucidId=YK6Ltbmd7Ewh;" edge="1" parent="1" source="xtsd_CawFZIZJIQlBOCX-10" target="xtsd_CawFZIZJIQlBOCX-21">
          <mxGeometry width="100" height="100" relative="1" as="geometry">
            <Array as="points" />
          </mxGeometry>
        </mxCell>
        <mxCell id="xtsd_CawFZIZJIQlBOCX-17" value="Salah" style="text;html=1;resizable=0;labelBackgroundColor=default;align=center;verticalAlign=middle;fontStyle=1;fontColor=#333333;fontSize=13.3;" vertex="1" parent="xtsd_CawFZIZJIQlBOCX-16">
          <mxGeometry relative="1" as="geometry" />
        </mxCell>
        <mxCell id="xtsd_CawFZIZJIQlBOCX-18" value="" style="html=1;jettySize=18;whiteSpace=wrap;fontSize=13;strokeColor=#3a414a;strokeOpacity=100;strokeWidth=0.8;rounded=1;arcSize=12;edgeStyle=orthogonalEdgeStyle;startArrow=none;endArrow=block;endFill=1;exitX=0.5;exitY=1.005;exitPerimeter=0;entryX=0.5;entryY=0.05;entryPerimeter=0;lucidId=2K6LYISjTUFE;" edge="1" parent="1" source="xtsd_CawFZIZJIQlBOCX-14" target="xtsd_CawFZIZJIQlBOCX-15">
          <mxGeometry width="100" height="100" relative="1" as="geometry">
            <Array as="points" />
          </mxGeometry>
        </mxCell>
        <mxCell id="xtsd_CawFZIZJIQlBOCX-19" value="" style="html=1;jettySize=18;whiteSpace=wrap;fontSize=13.3;fontColor=#333333;fontStyle=1;strokeColor=#3a414a;strokeOpacity=100;strokeWidth=0.8;rounded=1;arcSize=12;edgeStyle=orthogonalEdgeStyle;startArrow=none;endArrow=block;endFill=1;exitX=0.5;exitY=0.95;exitPerimeter=0;entryX=0.5;entryY=-0.005;entryPerimeter=0;lucidId=8K6Loswvo1sq;" edge="1" parent="1" source="xtsd_CawFZIZJIQlBOCX-15" target="xtsd_CawFZIZJIQlBOCX-25">
          <mxGeometry width="100" height="100" relative="1" as="geometry">
            <Array as="points" />
          </mxGeometry>
        </mxCell>
        <mxCell id="xtsd_CawFZIZJIQlBOCX-20" value="Yes" style="text;html=1;resizable=0;labelBackgroundColor=default;align=center;verticalAlign=middle;fontStyle=1;fontColor=#333333;fontSize=13.3;" vertex="1" parent="xtsd_CawFZIZJIQlBOCX-19">
          <mxGeometry relative="1" as="geometry" />
        </mxCell>
        <mxCell id="xtsd_CawFZIZJIQlBOCX-21" value="" style="html=1;overflow=block;blockSpacing=1;whiteSpace=wrap;fillColor=#000000;fontSize=13;spacing=0;strokeColor=#3a414a;strokeOpacity=100;rounded=1;absoluteArcSize=1;arcSize=9;strokeWidth=0.8;lucidId=5O6LasLw4X9Y;" vertex="1" parent="1">
          <mxGeometry x="285" y="465" width="120" height="15" as="geometry" />
        </mxCell>
        <mxCell id="xtsd_CawFZIZJIQlBOCX-22" value="" style="html=1;jettySize=18;whiteSpace=wrap;fontSize=13.3;fontColor=#333333;fontStyle=1;strokeColor=#3a414a;strokeOpacity=100;strokeWidth=0.8;rounded=1;arcSize=12;edgeStyle=orthogonalEdgeStyle;startArrow=none;endArrow=block;endFill=1;exitX=0.05;exitY=0.5;exitPerimeter=0;entryX=0.25;entryY=1;entryPerimeter=0;lucidId=qP6Lr2VeCsY4;" edge="1" parent="1" source="xtsd_CawFZIZJIQlBOCX-15" target="xtsd_CawFZIZJIQlBOCX-21">
          <mxGeometry width="100" height="100" relative="1" as="geometry">
            <Array as="points" />
          </mxGeometry>
        </mxCell>
        <mxCell id="xtsd_CawFZIZJIQlBOCX-23" value="No" style="text;html=1;resizable=0;labelBackgroundColor=default;align=center;verticalAlign=middle;fontStyle=1;fontColor=#333333;fontSize=13.3;" vertex="1" parent="xtsd_CawFZIZJIQlBOCX-22">
          <mxGeometry relative="1" as="geometry" />
        </mxCell>
        <mxCell id="xtsd_CawFZIZJIQlBOCX-24" value="" style="html=1;jettySize=18;whiteSpace=wrap;fontSize=13;strokeColor=#3a414a;strokeOpacity=100;strokeWidth=0.8;rounded=1;arcSize=12;edgeStyle=orthogonalEdgeStyle;startArrow=none;endArrow=block;endFill=1;exitX=0.5;exitY=-0.025;exitPerimeter=0;entryX=0.5;entryY=1.006;entryPerimeter=0;lucidId=sP6LZ-V7ZHV0;" edge="1" parent="1" source="xtsd_CawFZIZJIQlBOCX-21" target="xtsd_CawFZIZJIQlBOCX-6">
          <mxGeometry width="100" height="100" relative="1" as="geometry">
            <Array as="points" />
          </mxGeometry>
        </mxCell>
        <mxCell id="xtsd_CawFZIZJIQlBOCX-25" value="&lt;div style=&quot;display: flex; justify-content: center; text-align: center; align-items: baseline; font-size: 0; line-height: 1.25;margin-top: -2px;&quot;&gt;&lt;span&gt;&lt;span style=&quot;font-size:16.7px;color:#3a414a;&quot;&gt;Menampilkan halaman dashboard&lt;/span&gt;&lt;/span&gt;&lt;/div&gt;" style="rounded=1;arcSize=20;whiteSpace=wrap;overflow=block;blockSpacing=1;html=1;fontSize=13;spacing=0;strokeColor=#3a414a;strokeOpacity=100;strokeWidth=0.8;" vertex="1" parent="1">
          <mxGeometry x="542" y="1005" width="131" height="75" as="geometry" />
        </mxCell>
        <mxCell id="xtsd_CawFZIZJIQlBOCX-26" value="" style="html=1;jettySize=18;whiteSpace=wrap;fontSize=13;strokeColor=#3a414a;strokeOpacity=100;strokeWidth=0.8;rounded=1;arcSize=12;edgeStyle=orthogonalEdgeStyle;startArrow=none;endArrow=block;endFill=1;exitX=0.5;exitY=1.005;exitPerimeter=0;entryX=0.5;entryY=-0.013;entryPerimeter=0;lucidId=AQ6Lvy33gR5P;" edge="1" parent="1" source="xtsd_CawFZIZJIQlBOCX-25">
          <mxGeometry width="100" height="100" relative="1" as="geometry">
            <Array as="points" />
            <mxPoint x="608" y="1199.61" as="targetPoint" />
          </mxGeometry>
        </mxCell>
        <mxCell id="xtsd_CawFZIZJIQlBOCX-27" value="" style="ellipse;html=1;shape=endState;fillColor=#000000;strokeColor=#ff0000;" vertex="1" parent="1">
          <mxGeometry x="593" y="1200" width="30" height="30" as="geometry" />
        </mxCell>
      </root>
    </mxGraphModel>
  </diagram>
  <diagram id="LGC08f7eszh7wGB709hu" name="Page-2">
    <mxGraphModel dx="1050" dy="541" grid="1" gridSize="10" guides="1" tooltips="1" connect="1" arrows="1" fold="1" page="1" pageScale="1" pageWidth="850" pageHeight="1100" math="0" shadow="0">
      <root>
        <mxCell id="0" />
        <mxCell id="1" parent="0" />
        <mxCell id="0xgky_BF-MWJoNnFOsaU-1" value="" style="fillColor=none;strokeColor=none;pointerEvents=0;fontStyle=0;html=1;whiteSpace=wrap;container=1;collapsible=0;childLayout=stackLayout;resizeParent=1;dropTarget=0;fontSize=13;spacing=0;strokeOpacity=100;rounded=1;absoluteArcSize=1;arcSize=9;strokeWidth=0.8;" vertex="1" parent="1">
          <mxGeometry x="240" y="225" width="240" height="1108.75" as="geometry" />
        </mxCell>
        <mxCell id="0xgky_BF-MWJoNnFOsaU-2" value="Staff Penjualan" style="swimlane;html=1;whiteSpace=wrap;connectable=0;fontStyle=0;startSize=30;dropTarget=0;rounded=0;spacing=0;strokeColor=#3a414a;strokeOpacity=100;strokeWidth=0.8;container=1;pointerEvents=0;collapsible=0;recursiveResize=0;fontSize=16.7;fontColor=#3a414a;" vertex="1" parent="0xgky_BF-MWJoNnFOsaU-1">
          <mxGeometry width="240" height="1108.75" as="geometry" />
        </mxCell>
        <mxCell id="0xgky_BF-MWJoNnFOsaU-3" value="" style="fillColor=none;strokeColor=none;pointerEvents=0;fontStyle=0;html=1;whiteSpace=wrap;container=1;collapsible=0;childLayout=stackLayout;resizeParent=1;dropTarget=0;fontSize=13;spacing=0;strokeOpacity=100;rounded=1;absoluteArcSize=1;arcSize=9;strokeWidth=0.8;" vertex="1" parent="1">
          <mxGeometry x="480" y="225" width="240" height="1108.75" as="geometry" />
        </mxCell>
        <mxCell id="0xgky_BF-MWJoNnFOsaU-4" value="Sistem" style="swimlane;html=1;whiteSpace=wrap;connectable=0;fontStyle=0;startSize=30;dropTarget=0;rounded=0;spacing=0;strokeColor=#3a414a;strokeOpacity=100;strokeWidth=0.8;container=1;pointerEvents=0;collapsible=0;recursiveResize=0;fontSize=16.7;fontColor=#3a414a;" vertex="1" parent="0xgky_BF-MWJoNnFOsaU-3">
          <mxGeometry width="240" height="1108.75" as="geometry" />
        </mxCell>
        <mxCell id="0xgky_BF-MWJoNnFOsaU-5" value="" style="html=1;overflow=block;blockSpacing=1;whiteSpace=wrap;ellipse;fillColor=#000000;fontSize=13;spacing=0;strokeColor=#FF0000;strokeOpacity=100;rounded=1;absoluteArcSize=1;arcSize=9;strokeWidth=0.8;lucidId=q16L1mu7JEJM;" vertex="1" parent="1">
          <mxGeometry x="347.5" y="285" width="25" height="25" as="geometry" />
        </mxCell>
        <mxCell id="0xgky_BF-MWJoNnFOsaU-6" value="&lt;div style=&quot;display: flex; justify-content: center; text-align: center; align-items: baseline; font-size: 0; line-height: 1.25;margin-top: -2px;&quot;&gt;&lt;span&gt;&lt;span style=&quot;font-size:16.7px;color:#3a414a;&quot;&gt;Melihat pesanan yang masuk&lt;/span&gt;&lt;/span&gt;&lt;/div&gt;" style="rounded=1;arcSize=20;whiteSpace=wrap;overflow=block;blockSpacing=1;html=1;fontSize=13;spacing=0;strokeColor=#3a414a;strokeOpacity=100;strokeWidth=0.8;" vertex="1" parent="1">
          <mxGeometry x="293" y="375" width="135" height="60" as="geometry" />
        </mxCell>
        <mxCell id="0xgky_BF-MWJoNnFOsaU-7" value="" style="html=1;jettySize=18;whiteSpace=wrap;fontSize=13;strokeColor=#3a414a;strokeOpacity=100;strokeWidth=0.8;rounded=1;arcSize=12;edgeStyle=orthogonalEdgeStyle;startArrow=none;endArrow=block;endFill=1;exitX=0.5;exitY=1.013;exitPerimeter=0;entryX=0.5;entryY=-0.006;entryPerimeter=0;lucidId=z66LbxzcsQRL;" edge="1" parent="1" source="0xgky_BF-MWJoNnFOsaU-5" target="0xgky_BF-MWJoNnFOsaU-6">
          <mxGeometry width="100" height="100" relative="1" as="geometry">
            <Array as="points" />
          </mxGeometry>
        </mxCell>
        <mxCell id="0xgky_BF-MWJoNnFOsaU-8" value="" style="html=1;overflow=block;blockSpacing=1;whiteSpace=wrap;shape=rhombus;fontSize=13;spacing=0;strokeColor=#3a414a;strokeOpacity=100;rounded=1;absoluteArcSize=1;arcSize=9;strokeWidth=0.8;lucidId=F66Lh73EEj_6;" vertex="1" parent="1">
          <mxGeometry x="345" y="540" width="30" height="30" as="geometry" />
        </mxCell>
        <mxCell id="0xgky_BF-MWJoNnFOsaU-9" value="" style="html=1;jettySize=18;whiteSpace=wrap;fontSize=13;strokeColor=#3a414a;strokeOpacity=100;strokeWidth=0.8;rounded=1;arcSize=12;edgeStyle=orthogonalEdgeStyle;startArrow=none;endArrow=block;endFill=1;exitX=0.5;exitY=1.006;exitPerimeter=0;entryX=0.5;entryY=0.05;entryPerimeter=0;lucidId=.66LWYlRSWNM;" edge="1" parent="1" source="0xgky_BF-MWJoNnFOsaU-6" target="0xgky_BF-MWJoNnFOsaU-8">
          <mxGeometry width="100" height="100" relative="1" as="geometry">
            <Array as="points" />
          </mxGeometry>
        </mxCell>
        <mxCell id="0xgky_BF-MWJoNnFOsaU-10" value="" style="html=1;jettySize=18;whiteSpace=wrap;fontSize=13.3;fontColor=#333333;fontStyle=1;strokeColor=#3a414a;strokeOpacity=100;strokeWidth=0.8;rounded=1;arcSize=12;edgeStyle=orthogonalEdgeStyle;startArrow=none;endArrow=block;endFill=1;exitX=0.5;exitY=0.95;exitPerimeter=0;entryX=0.5;entryY=-0.006;entryPerimeter=0;lucidId=d76Lx10Tu7Fg;" edge="1" parent="1" source="0xgky_BF-MWJoNnFOsaU-8" target="0xgky_BF-MWJoNnFOsaU-15">
          <mxGeometry width="100" height="100" relative="1" as="geometry">
            <Array as="points" />
          </mxGeometry>
        </mxCell>
        <mxCell id="0xgky_BF-MWJoNnFOsaU-11" value="ada" style="text;html=1;resizable=0;labelBackgroundColor=default;align=center;verticalAlign=middle;fontStyle=1;fontColor=#333333;fontSize=13.3;" vertex="1" parent="0xgky_BF-MWJoNnFOsaU-10">
          <mxGeometry relative="1" as="geometry" />
        </mxCell>
        <mxCell id="0xgky_BF-MWJoNnFOsaU-12" value="&lt;div style=&quot;display: flex; justify-content: center; text-align: center; align-items: baseline; font-size: 0; line-height: 1.25;margin-top: -2px;&quot;&gt;&lt;span&gt;&lt;span style=&quot;font-size:16.7px;color:#3a414a;&quot;&gt;tidak ada pesanan&lt;/span&gt;&lt;/span&gt;&lt;/div&gt;" style="rounded=1;arcSize=20;whiteSpace=wrap;overflow=block;blockSpacing=1;html=1;fontSize=13;spacing=0;strokeColor=#3a414a;strokeOpacity=100;strokeWidth=0.8;" vertex="1" parent="1">
          <mxGeometry x="555" y="525" width="120" height="60" as="geometry" />
        </mxCell>
        <mxCell id="0xgky_BF-MWJoNnFOsaU-13" value="" style="html=1;jettySize=18;whiteSpace=wrap;fontSize=13.3;fontColor=#333333;fontStyle=1;strokeColor=#3a414a;strokeOpacity=100;strokeWidth=0.8;rounded=1;arcSize=12;edgeStyle=orthogonalEdgeStyle;startArrow=none;endArrow=block;endFill=1;exitX=0.95;exitY=0.5;exitPerimeter=0;entryX=-0.003;entryY=0.5;entryPerimeter=0;lucidId=vd7LyqYDy8Jr;" edge="1" parent="1" source="0xgky_BF-MWJoNnFOsaU-8" target="0xgky_BF-MWJoNnFOsaU-12">
          <mxGeometry width="100" height="100" relative="1" as="geometry">
            <Array as="points" />
          </mxGeometry>
        </mxCell>
        <mxCell id="0xgky_BF-MWJoNnFOsaU-14" value="tidak ada" style="text;html=1;resizable=0;labelBackgroundColor=default;align=center;verticalAlign=middle;fontStyle=1;fontColor=#333333;fontSize=13.3;" vertex="1" parent="0xgky_BF-MWJoNnFOsaU-13">
          <mxGeometry x="-0.1746221479449116" relative="1" as="geometry" />
        </mxCell>
        <mxCell id="0xgky_BF-MWJoNnFOsaU-15" value="&lt;div style=&quot;display: flex; justify-content: center; text-align: center; align-items: baseline; font-size: 0; line-height: 1.25;margin-top: -2px;&quot;&gt;&lt;span&gt;&lt;span style=&quot;font-size:16.7px;color:#3a414a;&quot;&gt;melihat detail pesanan&lt;/span&gt;&lt;/span&gt;&lt;/div&gt;" style="rounded=1;arcSize=20;whiteSpace=wrap;overflow=block;blockSpacing=1;html=1;fontSize=13;spacing=0;strokeColor=#3a414a;strokeOpacity=100;strokeWidth=0.8;" vertex="1" parent="1">
          <mxGeometry x="300" y="690" width="120" height="60" as="geometry" />
        </mxCell>
        <mxCell id="0xgky_BF-MWJoNnFOsaU-16" value="&lt;div style=&quot;display: flex; justify-content: center; text-align: center; align-items: baseline; font-size: 0; line-height: 1.25;margin-top: -2px;&quot;&gt;&lt;span&gt;&lt;span style=&quot;font-size:16.7px;color:#3a414a;&quot;&gt;menampilkan detail pesanan&lt;/span&gt;&lt;/span&gt;&lt;/div&gt;" style="rounded=1;arcSize=20;whiteSpace=wrap;overflow=block;blockSpacing=1;html=1;fontSize=13;spacing=0;strokeColor=#3a414a;strokeOpacity=100;strokeWidth=0.8;" vertex="1" parent="1">
          <mxGeometry x="555" y="690" width="135" height="60" as="geometry" />
        </mxCell>
        <mxCell id="0xgky_BF-MWJoNnFOsaU-17" value="" style="html=1;jettySize=18;whiteSpace=wrap;fontSize=13;strokeColor=#3a414a;strokeOpacity=100;strokeWidth=0.8;rounded=1;arcSize=12;edgeStyle=orthogonalEdgeStyle;startArrow=none;endArrow=block;endFill=1;exitX=1.003;exitY=0.5;exitPerimeter=0;entryX=-0.003;entryY=0.5;entryPerimeter=0;lucidId=ve7Le.sZ9xoW;" edge="1" parent="1" source="0xgky_BF-MWJoNnFOsaU-15" target="0xgky_BF-MWJoNnFOsaU-16">
          <mxGeometry width="100" height="100" relative="1" as="geometry">
            <Array as="points" />
          </mxGeometry>
        </mxCell>
        <mxCell id="0xgky_BF-MWJoNnFOsaU-18" value="" style="html=1;jettySize=18;whiteSpace=wrap;fontSize=13;strokeColor=#3a414a;strokeOpacity=100;strokeWidth=0.8;rounded=1;arcSize=12;edgeStyle=orthogonalEdgeStyle;startArrow=none;endArrow=block;endFill=1;exitX=0.5;exitY=1.006;exitPerimeter=0;entryX=0.5;entryY=-0.006;entryPerimeter=0;lucidId=Hh7L_uubVYB8;" edge="1" parent="1" source="0xgky_BF-MWJoNnFOsaU-16" target="0xgky_BF-MWJoNnFOsaU-19">
          <mxGeometry width="100" height="100" relative="1" as="geometry">
            <Array as="points" />
          </mxGeometry>
        </mxCell>
        <mxCell id="0xgky_BF-MWJoNnFOsaU-19" value="&lt;div style=&quot;display: flex; justify-content: center; text-align: center; align-items: baseline; font-size: 0; line-height: 1.25;margin-top: -2px;&quot;&gt;&lt;span&gt;&lt;span style=&quot;font-size:16.7px;color:#3a414a;&quot;&gt;Memproses pesanan&lt;/span&gt;&lt;/span&gt;&lt;/div&gt;" style="rounded=1;arcSize=20;whiteSpace=wrap;overflow=block;blockSpacing=1;html=1;fontSize=13;spacing=0;strokeColor=#3a414a;strokeOpacity=100;strokeWidth=0.8;" vertex="1" parent="1">
          <mxGeometry x="300" y="900" width="120" height="60" as="geometry" />
        </mxCell>
        <mxCell id="0xgky_BF-MWJoNnFOsaU-20" value="&lt;div style=&quot;display: flex; justify-content: center; text-align: center; align-items: baseline; font-size: 0; line-height: 1.25;margin-top: -2px;&quot;&gt;&lt;span&gt;&lt;span style=&quot;font-size:16.7px;color:#3a414a;&quot;&gt;Memperbarui  status pesanan menjadi pesanan sedang diproses&lt;/span&gt;&lt;/span&gt;&lt;/div&gt;" style="rounded=1;arcSize=20;whiteSpace=wrap;overflow=block;blockSpacing=1;html=1;fontSize=13;spacing=0;strokeColor=#3a414a;strokeOpacity=100;strokeWidth=0.8;" vertex="1" parent="1">
          <mxGeometry x="544" y="885" width="158" height="98" as="geometry" />
        </mxCell>
        <mxCell id="0xgky_BF-MWJoNnFOsaU-21" value="" style="html=1;jettySize=18;whiteSpace=wrap;fontSize=13;strokeColor=#3a414a;strokeOpacity=100;strokeWidth=0.8;rounded=1;arcSize=12;edgeStyle=orthogonalEdgeStyle;startArrow=none;endArrow=block;endFill=1;exitX=1.003;exitY=0.5;exitPerimeter=0;entryX=-0.002;entryY=0.462;entryPerimeter=0;lucidId=Ds7LAEpniXuG;" edge="1" parent="1" source="0xgky_BF-MWJoNnFOsaU-19" target="0xgky_BF-MWJoNnFOsaU-20">
          <mxGeometry width="100" height="100" relative="1" as="geometry">
            <Array as="points" />
          </mxGeometry>
        </mxCell>
        <mxCell id="0xgky_BF-MWJoNnFOsaU-22" value="&lt;div style=&quot;display: flex; justify-content: center; text-align: center; align-items: baseline; font-size: 0; line-height: 1.25;margin-top: -2px;&quot;&gt;&lt;span&gt;&lt;span style=&quot;font-size:16.7px;color:#3a414a;&quot;&gt;Pesanan selesai&lt;/span&gt;&lt;/span&gt;&lt;/div&gt;" style="rounded=1;arcSize=20;whiteSpace=wrap;overflow=block;blockSpacing=1;html=1;fontSize=13;spacing=0;strokeColor=#3a414a;strokeOpacity=100;strokeWidth=0.8;" vertex="1" parent="1">
          <mxGeometry x="308" y="1035" width="120" height="60" as="geometry" />
        </mxCell>
        <mxCell id="0xgky_BF-MWJoNnFOsaU-23" value="" style="html=1;jettySize=18;whiteSpace=wrap;fontSize=13;strokeColor=#3a414a;strokeOpacity=100;strokeWidth=0.8;rounded=1;arcSize=12;edgeStyle=orthogonalEdgeStyle;startArrow=none;endArrow=block;endFill=1;exitX=0.5;exitY=1.004;exitPerimeter=0;entryX=1.003;entryY=0.5;entryPerimeter=0;lucidId=5s7Lcp~RA6qy;" edge="1" parent="1" source="0xgky_BF-MWJoNnFOsaU-20" target="0xgky_BF-MWJoNnFOsaU-22">
          <mxGeometry width="100" height="100" relative="1" as="geometry">
            <Array as="points" />
          </mxGeometry>
        </mxCell>
        <mxCell id="0xgky_BF-MWJoNnFOsaU-24" value="&lt;div style=&quot;display: flex; justify-content: center; text-align: center; align-items: baseline; font-size: 0; line-height: 1.25;margin-top: -2px;&quot;&gt;&lt;span&gt;&lt;span style=&quot;font-size:16.7px;color:#3a414a;&quot;&gt;Memperbarui status pesanan menjadi selesai&lt;/span&gt;&lt;/span&gt;&lt;/div&gt;" style="rounded=1;arcSize=20;whiteSpace=wrap;overflow=block;blockSpacing=1;html=1;fontSize=13;spacing=0;strokeColor=#3a414a;strokeOpacity=100;strokeWidth=0.8;" vertex="1" parent="1">
          <mxGeometry x="540" y="1125" width="135" height="75" as="geometry" />
        </mxCell>
        <mxCell id="0xgky_BF-MWJoNnFOsaU-25" value="" style="html=1;jettySize=18;whiteSpace=wrap;fontSize=13;strokeColor=#3a414a;strokeOpacity=100;strokeWidth=0.8;rounded=1;arcSize=12;edgeStyle=orthogonalEdgeStyle;startArrow=none;endArrow=block;endFill=1;exitX=0.5;exitY=1.006;exitPerimeter=0;entryX=-0.003;entryY=0.5;entryPerimeter=0;lucidId=Gt7LzeeueTcs;" edge="1" parent="1" source="0xgky_BF-MWJoNnFOsaU-22" target="0xgky_BF-MWJoNnFOsaU-24">
          <mxGeometry width="100" height="100" relative="1" as="geometry">
            <Array as="points" />
          </mxGeometry>
        </mxCell>
        <mxCell id="0xgky_BF-MWJoNnFOsaU-26" value="" style="html=1;jettySize=18;whiteSpace=wrap;fontSize=13;strokeColor=#3a414a;strokeOpacity=100;strokeWidth=0.8;rounded=1;arcSize=12;edgeStyle=orthogonalEdgeStyle;startArrow=none;endArrow=block;endFill=1;exitX=0.5;exitY=1.005;exitPerimeter=0;entryX=0.5;entryY=-0.013;entryPerimeter=0;lucidId=fw7LP---9n1c;" edge="1" parent="1" source="0xgky_BF-MWJoNnFOsaU-24">
          <mxGeometry width="100" height="100" relative="1" as="geometry">
            <Array as="points" />
            <mxPoint x="608" y="1289.61" as="targetPoint" />
          </mxGeometry>
        </mxCell>
        <mxCell id="0xgky_BF-MWJoNnFOsaU-27" value="" style="ellipse;html=1;shape=endState;fillColor=#000000;strokeColor=#ff0000;" vertex="1" parent="1">
          <mxGeometry x="593" y="1290" width="30" height="30" as="geometry" />
        </mxCell>
      </root>
    </mxGraphModel>
  </diagram>
</mxfile>
